<svg xmlns="http://www.w3.org/2000/svg" width="447.3" height="73.4" viewBox="0 0 4473 734">
  <metadata><?xpacket begin="﻿" id="W5M0MpCehiHzreSzNTczkc9d"?>
<x:xmpmeta xmlns:x="adobe:ns:meta/" x:xmptk="Adobe XMP Core 5.6-c138 79.159824, 2016/09/14-01:09:01        ">
   <rdf:RDF xmlns:rdf="http://www.w3.org/1999/02/22-rdf-syntax-ns#">
      <rdf:Description rdf:about=""/>
   </rdf:RDF>
</x:xmpmeta>
                                                                                                    
                                                                                                    
                                                                                                    
                                                                                                    
                                                                                                    
                                                                                                    
                                                                                                    
                                                                                                    
                                                                                                    
                                                                                                    
                                                                                                    
                                                                                                    
                                                                                                    
                                                                                                    
                                                                                                    
                                                                                                    
                                                                                                    
                                                                                                    
                                                                                                    
                                                                                                    
                           
<?xpacket end="w"?></metadata>
<defs>
    <style>
      .cls-1 {
        fill-rule: evenodd;
      }
    </style>
  </defs>
  <path id="dave_blake_copy" data-name="dave blake copy" class="cls-1" d="M471.622,650.638V410.012h0V18.344c0-10.417-7.291-18.75-17.708-18.75h-3.125L272.663,25.635v6.25c23.959,4.167,42.709,26.042,42.709,51.042V228.761c-20.834-11.458-56.251-21.875-91.667-21.875-107.293,0-222.918,112.5-222.918,277.085,0,130.209,76.042,238.543,181.251,248.959,47.917,5.209,94.792-11.458,133.334-42.708v25c0,10.417,8.333,18.75,17.708,18.75h3.125L514.331,707.93v-6.25C490.373,697.514,471.622,675.638,471.622,650.638ZM281,690.222c-68.751,0-125-103.126-125-231.251S212.246,227.72,281,227.72c11.458,0,22.916,3.125,34.375,8.333V681.888C303.913,687.1,292.455,690.222,281,690.222Zm692.719-18.75V336.053c0-5.208,0-11.458-1.041-16.666-12.5-77.084-110.418-126.043-218.751-109.376-79.168,11.459-175,70.834-175,145.834a79.584,79.584,0,0,0,80.208,80.209c44.792,0,81.251-35.417,81.251-80.209,0-51.042-44.792-64.583-44.792-100,0-38.542,73.959-42.709,100-42.709,22.917,0,75,4.167,75,36.459,0,38.542-54.167,52.083-54.167,105.209v56.25c-69.792,25-148.959,46.875-191.668,73.959-57.292,35.416-90.625,93.75-73.958,153.125,15.625,58.334,73.958,95.834,139.584,95.834,58.333,0,101.042-26.042,126.042-44.792v21.875c0,9.375,8.333,17.709,18.75,17.709H1016.42v-6.25C992.466,718.347,973.716,696.472,973.716,671.472ZM816.424,418.346V681.888c-22.917,16.667-58.334,10.417-81.251-14.583-21.875-23.958-35.416-59.375-31.25-109.375,7.292-92.709,75-122.918,112.5-140.626v1.042ZM1205.81,734.972c-0.99,0-1.96-.046-2.94-0.065-1.02.02-2.04,0.065-3.06,0.065-0.82,0-1.63-.041-2.45-0.054-0.85.014-1.7,0.054-2.55,0.054a132.272,132.272,0,0,1-32.26-3.84c-55.74-11.771-93-60.429-93-144.036V300.637a51.615,51.615,0,0,0-37.99-49.984c-0.1-.018-0.19-0.041-0.29-0.058v-0.028c-1.45-.387-2.93-0.712-4.42-0.972v-6.25L1204.97,217.3h3.13a19.635,19.635,0,0,1,6.25,1.006l0.04-.006h3.13c0.72,0,1.42.043,2.11,0.111l0.76-.111h3.13c10.42,0,17.71,7.292,17.71,17.708V575.6c0,53.126-54.17,66.667-54.17,105.209,0,18.432,14.83,32.812,40.15,36.654,1.59-.018,3.2-0.062,4.84-0.154,20.84-2.083,45.84-13.541,62.5-26.041,28.13-19.792,54.17-47.917,78.13-81.251,38.54-55.208,64.58-122.917,76.04-192.709,5.36-29.441,3.81-51.226-14.4-56.878-0.43-.064-0.88-0.108-1.32-0.156-14.21,1.367-24.26,6.992-40.73,6.992-0.95,0-1.88-.039-2.82-0.072-1.04.046-2.09,0.072-3.18,0.072-0.81,0-1.62-.038-2.43-0.062-0.84.031-1.69,0.062-2.57,0.062a81.3,81.3,0,0,1-20.32-2.571c-37.21-7.4-65.35-40.2-65.35-78.638a81.349,81.349,0,0,1,81.25-81.25,77.7,77.7,0,0,1,12.62,1.07,0.016,0.016,0,0,1,.01,0c0.93-.032,1.85-0.071,2.79-0.071a79.759,79.759,0,0,1,71.88,45.833c12.5,25,13.54,57.292,13.54,82.292C1477.69,546.429,1343.31,734.972,1205.81,734.972Zm546.02-521.836c45.84,0,72.92,64.584,79.17,193.751H1672.67C1678.92,277.72,1706,213.136,1751.83,213.136Zm121.88,290.627a80.243,80.243,0,0,0-80.21,80.208c0,56.251,47.92,61.459,47.92,97.917,0,15.626-9.38,30.209-32.3,37.5a205.781,205.781,0,0,1-57.29,8.333c-52.08,0-81.25-86.459-81.25-257.293,0-19.792,1.04-39.583,2.09-57.292h310.41c-22.91-117.709-117.7-206.251-231.25-206.251-131.25,0-237.5,117.709-237.5,263.543s106.25,263.543,237.5,263.543c104.17,0,203.13-81.25,203.13-150C1954.96,539.179,1918.5,503.763,1873.71,503.763ZM2698.7,449.6c-14.59-145.834-123.96-254.168-238.55-242.71q-42.18,4.688-75,21.875V18.344c0-10.417-7.29-18.75-17.7-18.75h-3.13L2186.2,25.635v6.25c23.95,4.167,42.7,26.042,42.7,51.042V671.472c0,25-18.75,46.875-42.7,51.042v6.25h177.08c12.5,0,21.87-9.375,21.87-21.875V690.222c39.59,31.25,85.42,47.917,133.34,42.708C2633.07,721.472,2713.28,594.388,2698.7,449.6ZM2420.57,690.222c-12.5,0-23.96-3.125-35.42-8.334V236.053c11.46-5.208,22.92-8.333,35.42-8.333,67.71,0,123.96,103.125,123.96,231.251S2488.28,690.222,2420.57,690.222Zm510.42-539.586V18.344c0-10.417-7.29-18.75-17.71-18.75h-3.12L2732.03,25.635v6.25c23.96,4.167,42.71,26.042,42.71,51.042V671.472c0,25-18.75,46.875-42.71,51.042v6.25H2973.7v-6.25c-23.96-4.167-42.71-26.042-42.71-51.042V150.636Zm502.09,520.836V336.053c0-5.208,0-11.458-1.04-16.666-12.5-77.084-110.42-126.043-218.75-109.376-79.17,11.459-175,70.834-175,145.834a79.587,79.587,0,0,0,80.21,80.209c44.79,0,81.25-35.417,81.25-80.209,0-51.042-44.79-64.583-44.79-100,0-38.542,73.96-42.709,100-42.709,22.91,0,75,4.167,75,36.459,0,38.542-54.17,52.083-54.17,105.209v56.25c-69.79,25-148.96,46.875-191.67,73.959-57.29,35.416-90.62,93.75-73.96,153.125,15.63,58.334,73.96,95.834,139.59,95.834,58.33,0,101.04-26.042,126.04-44.792v21.875c0,9.375,8.33,17.709,18.75,17.709h181.25v-6.25C3451.83,718.347,3433.08,696.472,3433.08,671.472ZM3275.79,418.346V681.888c-22.92,16.667-58.33,10.417-81.25-14.583-21.87-23.958-35.42-59.375-31.25-109.375,7.29-92.709,75-122.918,112.5-140.626v1.042Zm430.22,70.833c33.33,27.084,54.17,122.917,90.62,197.918,14.59,31.25,27.09,41.667,43.75,41.667h190.63v-6.25c-19.79,0-36.46-8.334-50-22.917-65.62-69.792-114.58-286.46-161.46-321.877l77.09-75c73.95-71.875,133.33-79.167,133.33-79.167V217.3H3809.13v6.25c34.38,3.125,60.42,32.292,60.42,67.709,0,18.75-7.29,36.458-19.79,48.958L3706.01,479.8V18.344c0-10.417-7.29-18.75-17.71-18.75h-3.12L3507.05,25.635v6.25c23.96,4.167,42.71,26.042,42.71,51.042V671.472c0,25-18.75,46.875-42.71,51.042v6.25h241.67v-6.25c-23.96-4.167-42.71-26.042-42.71-51.042V489.179Zm531.26-276.043c45.83,0,72.91,64.584,79.16,193.751H4158.1C4164.35,277.72,4191.43,213.136,4237.27,213.136Zm121.87,290.627a80.243,80.243,0,0,0-80.21,80.208c0,56.251,47.92,61.459,47.92,97.917,0,15.626-9.37,30.209-32.29,37.5a205.835,205.835,0,0,1-57.29,8.333c-52.09,0-81.25-86.459-81.25-257.293,0-19.792,1.04-39.583,2.08-57.292h310.42c-22.92-117.709-117.71-206.251-231.25-206.251-131.25,0-237.5,117.709-237.5,263.543s106.25,263.543,237.5,263.543c104.16,0,203.12-81.25,203.12-150C4440.39,539.179,4403.93,503.763,4359.14,503.763Z"/>
</svg>
